#!OML:ASF F:\VICON\USERDATA\INSTALL\rory3\rory3.ASF
:FULLY-SPECIFIED
:DEGREES
104
root 1.75403 18.1549 28.3907 3.96215 -1.35251 -4.86894
lowerback 14.1339 1.45443 2.41138
upperback 0.977725 2.23241 -1.01879
thorax -6.75816 1.00002 -2.88248
lowerneck -4.16407 -1.26969 -1.8021
upperneck -10.1889 -1.38915 3.68
head -2.47516 -0.713529 1.49661
rclavicle 6.75868e-015 6.36111e-015
rhumerus -37.1195 24.6163 -93.6208
rradius 105.151
rwrist -4.46032
rhand -28.1483 27.6055
rfingers 7.12502
rthumb -1.52913 -2.36874
lclavicle 6.75868e-015 6.36111e-015
lhumerus -59.2812 -0.941362 86.6327
lradius 110.839
lwrist 31.197
lhand -36.0143 14.9615
lfingers 7.12502
lthumb -9.12361 44.7441
rfemur 15.3805 4.16743 33.2212
rtibia 57.3443
rfoot 30.4586 -9.08344
rtoes 23.0519
lfemur -29.498 -6.16404 -13.2085
ltibia 18.9464
lfoot 9.18847 2.32943
ltoes -22.3484
105
root 1.74373 18.0472 28.9014 3.55369 -0.900939 -3.92716
lowerback 14.4417 1.23833 1.41283
upperback 1.18036 1.76907 -1.31473
thorax -6.76349 0.800911 -2.54763
lowerneck -4.52653 -1.13591 -1.67002
upperneck -9.96621 -1.20727 3.7762
head -2.34289 -0.625498 1.4962
rclavicle -1.63003e-014 -3.97569e-015
rhumerus -37.7408 23.9523 -93.7434
rradius 103.512
rwrist -4.02226
rhand -28.0509 26.5425
rfingers 7.12502
rthumb -1.43511 -3.43243
lclavicle -1.63003e-014 -3.97569e-015
lhumerus -57.5668 -1.63223 86.5507
lradius 110.679
lwrist 31.9333
lhand -36.2824 16.0941
lfingers 7.12502
lthumb -9.38232 45.8653
rfemur 13.796 2.73292 31.4952
rtibia 62.2979
rfoot 30.1614 -9.62752
rtoes 24.102
lfemur -28.5367 -5.52981 -15.046
ltibia 20.0231
lfoot 8.66616 -0.46816
ltoes -21.1995
106
root 1.73374 17.9455 29.4173 3.09532 -0.902631 -3.19707
lowerback 14.8058 1.17397 0.459173
upperback 1.32443 1.51495 -1.51967
thorax -6.84433 0.701337 -2.18279
lowerneck -4.85488 -1.01383 -1.58119
upperneck -9.58995 -1.04723 3.86503
head -2.16609 -0.545484 1.50012
rclavicle 1.31198e-014 -7.95139e-015
rhumerus -38.5509 23.4609 -93.9919
rradius 101.344
rwrist -4.26528
rhand -28.5598 27.5848
rfingers 7.12502
rthumb -1.92661 -2.38625
lclavicle 1.31198e-014 -7.95139e-015
lhumerus -55.8874 -2.40877 86.5273
lradius 110.548
lwrist 32.5161
lhand -36.2245 17.2811
lfingers 7.12502
lthumb -9.32645 47.0548
rfemur 12.0791 1.61558 29.8074
rtibia 67.4124
rfoot 29.3561 -9.89927
rtoes 23.1546
lfemur -27.7325 -4.13686 -16.8393
ltibia 22.1446
lfoot 5.97412 -3.39721
ltoes -18.5493
107
root 1.7226 17.8356 29.9136 2.68047 -0.830271 -3.05377
lowerback 15.2241 1.0334 0.0613102
upperback 1.46441 1.261 -1.52321
thorax -6.94507 0.588543 -1.91791
lowerneck -5.19843 -0.907304 -1.68943
upperneck -9.20384 -0.892606 4.13285
head -1.98473 -0.464069 1.59713
rclavicle 2.98177e-015 1.98785e-014
rhumerus -39.4232 22.8209 -94.1141
rradius 99.2591
rwrist -4.17377
rhand -29.1127 28.6045
rfingers 7.12502
rthumb -2.46058 -1.36106
lclavicle 2.98177e-015 1.98785e-014
lhumerus -54.0098 -3.36943 86.5082
lradius 110.468
lwrist 33.2448
lhand -35.974 17.3936
lfingers 7.12502
lthumb -9.08472 47.178
rfemur 10.1849 0.541124 28.881
rtibia 72.2828
rfoot 28.6065 -10.2888
rtoes 24.3638
lfemur -27.2136 -3.05733 -17.7448
ltibia 25.2279
lfoot 2.2856 -4.45946
ltoes -16.6022
108
root 1.68229 17.6882 30.304 2.20206 -1.83067 -3.68199
lowerback 17.0938 1.31259 -0.316061
upperback 1.32487 1.56569 -1.19387
thorax -8.14136 0.741214 -1.47512
lowerneck -5.0844 -0.830245 -1.90014
upperneck -9.31597 -0.768328 4.33373
head -2.04546 -0.40122 1.70205
rclavicle -2.08724e-014 3.97569e-015
rhumerus -40.1242 21.9389 -93.9871
rradius 97.2282
rwrist -3.73433
rhand -29.1638 28.65
rfingers 7.12502
rthumb -2.5099 -1.31496
lclavicle -2.08724e-014 3.97569e-015
lhumerus -51.9518 -4.46772 86.5996
lradius 110.44
lwrist 34.0014
lhand -36.1819 17.459
lfingers 7.12502
lthumb -9.28533 47.2345
rfemur 7.55193 0.570184 29.2202
rtibia 77.4834
rfoot 28.4362 -12.1537
rtoes 24.6368
lfemur -27.1802 -1.63109 -17.3734
ltibia 28.9606
lfoot -0.947636 -4.25779
ltoes -16.6606
109
root 1.66519 17.5959 30.8416 1.7277 -1.79547 -2.10937
lowerback 16.9438 1.35268 -2.19857
upperback 1.54921 1.24029 -1.53687
thorax -7.85524 0.643135 -0.69049
lowerneck -4.7366 -0.811602 -2.01787
upperneck -9.437 -0.734922 4.42609
head -2.14707 -0.387562 1.75788
rclavicle -8.94531e-015 2.3059e-014
rhumerus -41.0154 20.8077 -93.9476
rradius 95.0881
rwrist -3.4248
rhand -29.2025 28.9185
rfingers 7.12502
rthumb -2.54732 -1.04609
lclavicle -8.94531e-015 2.3059e-014
lhumerus -49.9461 -5.59344 86.6667
lradius 110.438
lwrist 34.4345
lhand -37.3493 16.7326
lfingers 7.12502
lthumb -10.4116 46.4549
rfemur 6.65083 -0.531937 26.3943
rtibia 81.4528
rfoot 27.104 -13.7333
rtoes 25.7894
lfemur -26.5932 -1.31161 -19.5478
ltibia 32.946
lfoot -4.07149 -4.30363
ltoes -11.1351
